<svg width="107" height="24" viewBox="0 0 107 24" fill="none" xmlns="http://www.w3.org/2000/svg">
<mask id="mask0_11940_47000" style="mask-type:alpha" maskUnits="userSpaceOnUse" x="0" y="0" width="24" height="24">
<path fill-rule="evenodd" clip-rule="evenodd" d="M17.5874 23.8584H19.3846C21.78 23.8584 23.719 21.9219 23.719 19.524V3.70978C23.719 1.7348 22.126 0.141846 20.151 0.141846H3.56794C1.59296 0.141846 0 1.7348 0 3.70978V19.7811C0 22.0372 1.82361 23.8584 4.0773 23.8584H17.5874Z" fill="#C0C0C0"/>
</mask>
<g mask="url(#mask0_11940_47000)">
<rect x="-5.28613" y="-6.42712" width="34.1176" height="36.7606" fill="#00EA9C"/>
<path d="M7.83772 15.2422H15.8746C17.4411 15.2422 18.7097 16.5108 18.7097 18.0773L17.5084 34.6028H6.21112L5.0098 18.0773C5.00259 16.5108 6.27119 15.2422 7.83531 15.2422H7.83772Z" fill="white"/>
<path d="M11.8598 13.0853C14.8295 13.0853 17.2537 10.6754 17.2537 7.69132C17.2537 4.70722 14.8439 2.29736 11.8598 2.29736C8.87568 2.29736 6.46582 4.70722 6.46582 7.69132C6.46582 10.6754 8.8901 13.0853 11.8598 13.0853Z" fill="white"/>
<path d="M11.9459 23.6425C11.9459 23.6425 11.9339 23.6425 11.9267 23.6425C11.8114 23.6353 11.7057 23.5753 11.6432 23.4792C11.5687 23.3638 11.3573 23.0875 11.1314 22.792C10.2737 21.6676 9.90607 21.1534 9.85081 20.8843C9.83399 20.7834 9.80036 20.5792 10.5548 18.5105C11.326 16.4057 11.4678 16.3217 11.5807 16.2544C11.6192 16.2304 11.6624 16.2159 11.7081 16.2087C12.1093 16.1463 12.3255 16.1607 12.5202 16.1727C12.5802 16.1775 12.6355 16.1799 12.6956 16.1823C12.6499 15.9685 12.6018 15.7522 12.5538 15.5384C12.4961 15.2789 12.4361 15.0122 12.3832 14.7551C11.9147 14.7599 11.29 14.8849 10.8407 15.1107C10.896 15.3053 10.9488 15.4759 11.0041 15.6561C11.0762 15.8892 11.1506 16.1318 11.2299 16.4298L10.5332 16.6124C10.4587 16.3289 10.389 16.1054 10.3169 15.87C10.2376 15.6177 10.1584 15.3582 10.0743 15.029C10.0358 14.8825 10.0935 14.7287 10.2184 14.6422C10.9056 14.1689 12.03 13.9695 12.722 14.0512C12.8782 14.0704 13.0055 14.1857 13.0343 14.3419C13.0968 14.6734 13.1785 15.0338 13.2554 15.3822C13.3347 15.7354 13.4163 16.1006 13.4812 16.4442C13.5004 16.5403 13.4788 16.6412 13.4212 16.7205C13.3635 16.7998 13.277 16.855 13.1809 16.8695C13.0968 16.8815 13.0223 16.8911 12.955 16.8959C13.2313 17.8305 14.1443 20.8218 14.1564 20.8555C14.1876 20.9588 14.1708 21.0717 14.1107 21.163C13.8608 21.5354 13.2169 22.3091 12.7004 22.9314C12.5154 23.1548 12.3472 23.3566 12.2222 23.5104C12.1526 23.5945 12.0516 23.6425 11.9411 23.6425H11.9459ZM10.5716 20.7642C10.6989 21.0333 11.3501 21.8862 11.7081 22.3547C11.8018 22.4772 11.8883 22.5926 11.9651 22.6935C12.0252 22.6214 12.0853 22.5469 12.1501 22.47C12.573 21.9607 13.1352 21.2831 13.4187 20.8963C13.1977 20.1683 12.352 17.3956 12.2078 16.8863C12.1405 16.8863 12.0661 16.8935 11.9772 16.9031C11.6672 17.511 10.6725 20.2332 10.5716 20.7666V20.7642Z" fill="#011124"/>
<path d="M16.2003 8.00369L16.0417 7.29971C16.2964 7.24205 16.5295 7.03062 16.6496 6.74951C16.7601 6.49002 16.7529 6.21612 16.6328 6.0167C16.5054 5.81007 16.2435 5.68033 15.948 5.68033C15.7222 5.68033 15.5227 5.75481 15.393 5.88455C15.357 5.93501 15.3209 5.98306 15.2825 6.03111C15.1623 6.17527 14.9485 6.20411 14.7947 6.09358C14.641 5.98306 14.5977 5.77403 14.6962 5.61305C14.7371 5.54818 14.7803 5.48571 14.8308 5.43045C15.0831 5.05804 15.2344 4.53907 15.0278 4.14744C14.7755 3.6645 14.0811 3.53956 13.555 3.66931C13.0096 3.80626 12.5146 4.12821 11.9908 4.46939L11.7722 4.61115C10.8159 5.21421 9.97742 5.5626 9.12928 5.70916C8.0601 5.89657 7.03657 5.71877 6.2485 5.21181C5.30666 4.61595 4.63632 3.52275 4.2567 1.96823C4.22066 1.82407 4.27833 1.6727 4.40086 1.58621C4.5234 1.49971 4.68438 1.49971 4.80931 1.58381C5.58057 2.10278 6.59448 1.98745 7.13028 1.87453C7.66367 1.76881 8.17543 1.58861 8.71603 1.3988C9.02597 1.28828 9.34552 1.17536 9.66988 1.07925C10.9673 0.690021 12.4041 0.557874 13.8241 0.692423C15.3762 0.836582 16.5919 1.31952 17.4377 2.1244C18.2786 2.9341 18.7447 4.10659 18.6822 5.25986L17.9614 5.22142C18.0119 4.27478 17.6299 3.31131 16.9379 2.64578C16.2123 1.95622 15.1431 1.54056 13.7544 1.41082C12.4233 1.28348 11.0826 1.40841 9.8741 1.77121C9.56656 1.86251 9.25422 1.97304 8.95389 2.08116C8.41329 2.27096 7.85347 2.47038 7.27203 2.58331C6.50799 2.74669 5.7896 2.72987 5.17452 2.54487C5.51569 3.51554 6.00584 4.2075 6.63533 4.60634C7.27444 5.01719 8.11536 5.15655 9.00434 5.00038C9.75637 4.86823 10.5132 4.55108 11.3854 4.00328L11.5992 3.86392C12.1494 3.50593 12.7188 3.13352 13.3844 2.96773C14.1989 2.76831 15.244 2.99416 15.6693 3.81106C15.8615 4.17627 15.8855 4.57991 15.8038 4.96434C15.8519 4.95953 15.9 4.95713 15.9504 4.95713C16.4958 4.95713 16.9956 5.21902 17.2502 5.63948C17.4905 6.03592 17.5169 6.55489 17.3151 7.02821C17.1037 7.52797 16.688 7.89077 16.2027 8.00129L16.2003 8.00369Z" fill="#011124"/>
<path d="M5.95413 10.0538C5.3847 10.0538 4.84891 9.85683 4.45968 9.48442C3.96474 9.06636 3.76291 8.43686 3.90467 7.75451C4.06565 6.98566 4.62066 6.36097 5.31743 6.15915C5.32223 6.15915 5.32464 6.15915 5.32944 6.15675C6.00459 5.98616 6.87675 6.24324 7.50144 6.79585C8.01561 7.25236 8.27029 7.8362 8.19821 8.40082C8.06126 9.12162 7.51586 9.68624 6.73499 9.93131C6.4731 10.013 6.20881 10.0538 5.95173 10.0538H5.95413ZM5.51204 6.85352C5.07716 6.98326 4.71677 7.40372 4.61105 7.90348C4.56059 8.14855 4.53416 8.60745 4.9306 8.93902C4.93781 8.94382 4.94502 8.95103 4.94982 8.95824C5.31983 9.31623 5.93491 9.42916 6.51875 9.24656C7.04253 9.08078 7.40293 8.72278 7.48702 8.2903C7.53988 7.86744 7.22033 7.51184 7.02331 7.33885C6.58363 6.95203 5.94933 6.7478 5.51204 6.85592V6.85352Z" fill="#011124"/>
<path d="M7.93352 8.23285L7.77734 7.52887C8.33956 7.40393 8.90659 7.34627 9.4568 7.36309L9.43758 8.08388C8.94023 8.07187 8.43807 8.12233 7.93352 8.23285Z" fill="#011124"/>
<path d="M11.8756 9.65291C11.4167 9.65291 10.9578 9.48713 10.619 9.15797C10.1337 8.7351 9.92464 8.05275 10.088 7.39442C10.2418 6.77213 10.6959 6.31563 11.3014 6.16907C12.1951 5.96004 13.0745 6.294 13.4854 6.99798C13.8746 7.66592 13.7497 8.48282 13.1538 9.12913C12.815 9.47752 12.3417 9.65291 11.8708 9.65291H11.8756ZM11.4695 6.87064C11.1236 6.95473 10.8761 7.20701 10.7872 7.56741C10.6911 7.95904 10.816 8.3747 11.1067 8.62938C11.3134 8.8288 11.5897 8.93692 11.878 8.93692H11.8828C12.1735 8.93692 12.4474 8.8264 12.6324 8.63419C13.0024 8.23054 13.0913 7.75241 12.8631 7.36078C12.6084 6.9235 12.0582 6.73129 11.4671 6.87064H11.4695Z" fill="#011124"/>
</g>
<path d="M62.026 12.053C61.2492 12.053 60.5665 11.8764 59.9662 11.5351C59.3777 11.1937 58.9186 10.7111 58.5773 10.0755C58.2477 9.43993 58.0947 8.6984 58.0947 7.85094C58.0947 7.00347 58.2595 6.25017 58.5773 5.62634C58.9069 5.00252 59.3777 4.50816 59.9662 4.16682C60.5547 3.82548 61.2374 3.64893 62.0025 3.64893C62.7676 3.64893 62.9794 3.74309 63.4032 3.93141C63.8269 4.10797 64.1565 4.35515 64.4036 4.67295V3.7784H66.6871V11.9352H64.4036V11.0525C64.1565 11.3703 63.8269 11.6174 63.4149 11.794C63.003 11.9706 62.5439 12.053 62.026 12.053ZM62.3909 10.1108C62.7793 10.1108 63.1324 10.0167 63.4385 9.82836C63.7445 9.64003 63.9799 9.38108 64.1447 9.05151C64.3095 8.71017 64.3919 8.30998 64.3919 7.86271C64.3919 7.41544 64.3095 7.01524 64.1447 6.68567C63.9799 6.34433 63.7445 6.07362 63.4385 5.88529C63.1324 5.69697 62.7793 5.6028 62.3909 5.6028C62.0025 5.6028 61.6494 5.69697 61.3433 5.88529C61.0373 6.07362 60.8019 6.33256 60.6371 6.68567C60.4723 7.01524 60.3899 7.41544 60.3899 7.86271C60.3899 8.30998 60.4723 8.71017 60.6371 9.05151C60.8019 9.38108 61.0373 9.64003 61.3433 9.82836C61.6494 10.0167 62.0025 10.1108 62.3909 10.1108Z" fill="#011124"/>
<path d="M57.4355 9.99238C57.0353 10.1336 55.87 10.2278 55.4816 10.0159C55.0932 9.80406 55.0814 9.41564 55.0814 9.08607V5.62559H57.4355V3.78941H55.0814V2.09448H52.798V3.78941H51.4326V5.62559H52.798V8.93305C52.798 9.6275 52.8686 10.2984 53.2453 10.9105C53.7278 11.6991 54.6753 12.0757 55.7253 12.0757C56.7752 12.0757 57.4473 11.8521 57.4473 11.8521V10.0042L57.4355 9.99238Z" fill="#011124"/>
<path d="M47.4538 12.1597C46.7358 12.1597 46.1002 12.042 45.547 11.8066C45.0056 11.5712 44.5701 11.2298 44.2405 10.7943C43.9227 10.3471 43.7579 9.8527 43.7344 9.28772H46.0531C46.0767 9.61729 46.2179 9.87624 46.4651 10.0646C46.7123 10.2529 47.0418 10.3471 47.4656 10.3471C47.8893 10.3471 48.0776 10.2882 48.2895 10.1587C48.4896 10.0175 48.5955 9.84093 48.5955 9.60552C48.5955 9.37012 48.5249 9.27595 48.3719 9.14648C48.2306 9.02878 48.0541 8.93461 47.8305 8.87576C47.6186 8.80514 47.3243 8.72275 46.9477 8.64035C46.3474 8.49911 45.8413 8.35787 45.4411 8.21662C45.0409 8.06361 44.6995 7.81643 44.3935 7.48686C44.0993 7.15729 43.9698 6.69825 43.9698 6.1215C43.9698 5.54475 44.0993 5.23873 44.3582 4.87384C44.6172 4.49719 44.9938 4.20293 45.4764 3.99107C45.959 3.7792 46.5239 3.6615 47.1595 3.6615C47.7951 3.6615 48.4778 3.76743 49.0193 3.99107C49.5607 4.20293 49.9844 4.50896 50.2905 4.92093C50.5965 5.30935 50.773 5.79193 50.8084 6.33337H48.4896C48.4661 6.03911 48.3248 5.79193 48.0776 5.62715C47.8305 5.46236 47.5362 5.37997 47.1595 5.37997C46.7829 5.37997 46.6416 5.43882 46.4651 5.54475C46.3003 5.65069 46.2179 5.8037 46.2179 6.01557C46.2179 6.22743 46.2768 6.33337 46.418 6.42753C46.5593 6.52169 46.724 6.60408 46.9124 6.66294C47.1125 6.72179 47.4067 6.79241 47.7951 6.8748C48.4425 6.99251 48.9722 7.12198 49.3724 7.27499C49.7843 7.42801 50.1374 7.67519 50.4435 8.04007C50.7495 8.40495 50.9025 8.8993 50.9025 9.54667C50.9025 10.194 50.7495 10.5354 50.467 10.9356C50.1728 11.324 49.7726 11.6418 49.2547 11.8654C48.7603 12.042 48.16 12.1597 47.4773 12.1597H47.4538Z" fill="#011124"/>
<path d="M30.7881 3.77844H33.0715V11.9235H30.7881V3.77844Z" fill="#011124"/>
<path fill-rule="evenodd" clip-rule="evenodd" d="M33.2824 1.35383C33.2824 2.08359 32.6821 2.70742 31.9288 2.70742C31.1755 2.70742 30.5752 2.08359 30.5752 1.35383C30.5752 0.624072 31.1755 0.000244141 31.9288 0.000244141C32.6821 0.000244141 33.2824 0.624072 33.2824 1.35383Z" fill="#011124"/>
<path d="M42.428 5.06137C42.1691 4.60232 41.7807 4.26098 41.2863 4.01381C40.8037 3.76663 40.2387 3.64893 39.6149 3.64893C38.9911 3.64893 38.485 3.76663 38.0024 3.9785C37.5198 4.19036 37.1549 4.55524 36.9313 4.8495V3.7784H34.5654V11.9235H36.9195V8.27467C36.9195 8.1452 36.9195 8.01572 36.9313 7.89802C36.9548 7.48606 37.0254 7.13295 37.1549 6.82692C37.3197 6.4385 37.5551 6.14424 37.8376 5.94414C38.1318 5.74405 38.485 5.64988 38.8851 5.64988C39.2853 5.64988 39.4737 5.70874 39.6973 5.83821C39.9445 5.96768 40.121 6.14424 40.2387 6.37965C40.3564 6.61505 40.4153 6.874 40.4153 7.18003V11.9235H42.84V6.59151C42.84 6.01476 42.6987 5.50864 42.428 5.06137Z" fill="#011124"/>
<path d="M88.6507 23.9659C87.8268 23.9659 87.0853 23.7893 86.4261 23.4362C85.767 23.0713 85.2491 22.577 84.8842 21.9296C84.5193 21.294 84.3428 20.5642 84.3428 19.7638C84.3428 18.9635 84.5193 18.2337 84.8842 17.5981C85.2609 16.9625 85.767 16.4682 86.4144 16.115C87.0735 15.7502 87.815 15.5736 88.6507 15.5736C89.4864 15.5736 90.2162 15.7502 90.8635 16.115C91.5227 16.4682 92.0406 16.9625 92.4055 17.5981C92.7821 18.2337 92.9704 18.9635 92.9704 19.7638C92.9704 20.5642 92.7821 21.294 92.4055 21.9296C92.0288 22.5534 91.5227 23.0595 90.8635 23.4127C90.2044 23.7775 89.4746 23.9659 88.6507 23.9659ZM88.6507 22.0355C89.0391 22.0355 89.3923 21.9414 89.6983 21.753C90.0043 21.5529 90.2397 21.2822 90.4045 20.9409C90.5693 20.5995 90.6517 20.1994 90.6517 19.7638C90.6517 19.3283 90.5693 18.9164 90.4045 18.5868C90.2397 18.2455 90.0043 17.9748 89.6983 17.7864C89.3923 17.5863 89.0391 17.4922 88.6507 17.4922C88.2623 17.4922 87.8974 17.5863 87.5914 17.7864C87.2971 17.9748 87.0617 18.2337 86.8969 18.5868C86.7322 18.9164 86.6498 19.3166 86.6498 19.7638C86.6498 20.2111 86.7322 20.6113 86.8969 20.9527C87.0617 21.2822 87.2971 21.5529 87.5914 21.753C87.8856 21.9414 88.2505 22.0355 88.6507 22.0355Z" fill="#011124"/>
<path d="M75.6212 13.4187H77.9046V16.6438C78.1283 16.3495 78.4696 16.1023 78.9169 15.8905C79.3759 15.6786 79.8821 15.5609 80.4353 15.5609C80.9885 15.5609 81.5535 15.6786 82.0125 15.9258C82.4715 16.173 82.8364 16.5143 83.0836 16.9733C83.3425 17.4206 83.4602 17.9267 83.4602 18.5035V23.8355H81.1768V19.1038C81.1768 18.786 81.1179 18.5153 81.012 18.2916C80.9061 18.0562 80.7413 17.8797 80.5059 17.7502C80.294 17.6207 80.0351 17.5619 79.7408 17.5619C79.4466 17.5619 79.0346 17.656 78.7521 17.8561C78.4814 18.0562 78.2578 18.3505 78.1047 18.7389C77.9517 19.1273 77.8811 19.6099 77.8811 20.1866V23.8355H75.5977V13.4187H75.6212Z" fill="#011124"/>
<path d="M52.6686 24.0001C51.8918 24.0001 51.2091 23.8235 50.6088 23.4822C50.0203 23.1409 49.5612 22.6583 49.2199 22.0227C48.8903 21.3871 48.7373 20.6455 48.7373 19.7981C48.7373 18.9506 48.9021 18.1973 49.2199 17.5735C49.5495 16.9497 50.0203 16.4553 50.6088 16.114C51.1973 15.7726 51.88 15.5961 52.6451 15.5961C53.4101 15.5961 53.622 15.6902 54.0457 15.8786C54.4695 16.0551 54.799 16.3023 55.0462 16.6201V15.6902H57.3297V23.8353H55.0462V22.9996C54.799 23.3174 54.4695 23.5646 54.0575 23.7411C53.6338 23.9177 53.1747 24.0001 52.6686 24.0001ZM53.0335 22.058C53.4219 22.058 53.775 21.9638 54.081 21.7755C54.3871 21.5872 54.6225 21.3282 54.7873 20.9987C54.952 20.6573 55.0344 20.2571 55.0344 19.8099C55.0344 19.3626 54.952 18.9624 54.7873 18.6328C54.6225 18.2915 54.3871 18.0208 54.081 17.8324C53.775 17.6441 53.4337 17.5499 53.0335 17.5499C52.6333 17.5499 52.2919 17.6441 51.9859 17.8324C51.6799 18.0208 51.4445 18.2797 51.2797 18.6328C51.1149 18.9624 51.0325 19.3626 51.0325 19.8099C51.0325 20.2571 51.1149 20.6573 51.2797 20.9987C51.4445 21.3282 51.6799 21.5872 51.9859 21.7755C52.2919 21.9638 52.6451 22.058 53.0335 22.058Z" fill="#011124"/>
<path d="M47.466 17.9266C47.1717 17.1969 46.7009 16.6319 46.0418 16.22C45.3944 15.7962 44.6294 15.5844 43.7466 15.5844C42.8638 15.5844 42.24 15.7609 41.6161 16.1258C40.9923 16.4789 40.5097 16.9733 40.1566 17.6089C39.8035 18.2444 39.627 18.9742 39.627 19.7746C39.627 20.575 39.8035 21.3165 40.1331 21.9521C40.4744 22.5759 40.9688 23.0703 41.5926 23.4352C42.2282 23.7883 42.9815 23.9648 43.8407 23.9648C44.7 23.9648 45.159 23.8471 45.7005 23.6353C46.2537 23.3881 46.7009 23.0585 47.0423 22.6348C47.3954 22.2111 47.619 21.7285 47.725 21.187H45.3827C45.312 21.4813 45.1355 21.7049 44.8648 21.8697C44.594 22.0227 44.2527 22.1051 43.829 22.1051C43.4052 22.1051 43.0639 22.011 42.7579 21.8344C42.4636 21.6578 42.2282 21.3989 42.0634 21.0576C41.9693 20.8457 41.8986 20.5985 41.8633 20.316H47.7367C47.8544 19.4333 47.7603 18.6446 47.466 17.9266ZM41.9575 18.68C41.981 18.5858 42.0163 18.4916 42.0516 18.4092C42.2047 18.0444 42.4165 17.7736 42.6872 17.5971C42.9697 17.4088 43.3228 17.3146 43.7466 17.3146C44.1703 17.3146 44.3233 17.3734 44.5587 17.4794C44.8059 17.5853 44.9942 17.7501 45.1355 17.962C45.2767 18.1621 45.3473 18.4092 45.3709 18.68H41.9575Z" fill="#011124"/>
<path d="M30.7881 13.3604H33.0715V16.5854C33.2952 16.2912 33.6365 16.044 34.0838 15.8321C34.5428 15.6203 35.049 15.5026 35.6022 15.5026C36.1554 15.5026 36.7203 15.6203 37.1794 15.8674C37.6384 16.1146 38.0033 16.456 38.2505 16.915C38.5094 17.3623 38.6389 17.8684 38.6389 18.4451V23.7771H36.3555V19.0454C36.3555 18.7276 36.2966 18.4569 36.1907 18.2333C36.0847 17.9979 35.92 17.8213 35.6845 17.6918C35.4727 17.5624 35.2137 17.5035 34.9195 17.5035C34.6252 17.5035 34.2133 17.5977 33.9308 17.7978C33.66 17.9979 33.4364 18.2921 33.2834 18.6805C33.1304 19.069 33.0598 19.5516 33.0598 20.1283V23.7771H30.7881V13.3604Z" fill="#011124"/>
<path d="M99.121 21.8934C98.7208 22.0346 97.5556 22.1288 97.1672 21.9169C96.7787 21.7051 96.767 21.3166 96.767 20.9871V17.5266H99.121V15.6904H96.767V13.9955H94.4835V15.6904H93.1182V17.5266H94.4835V20.8341C94.4835 21.5285 94.5541 22.1994 94.9308 22.8115C95.4134 23.6001 96.3609 23.9767 97.4108 23.9767C98.4607 23.9767 99.1328 23.7531 99.1328 23.7531V21.9052L99.121 21.8934Z" fill="#011124"/>
<path d="M71.277 23.9657C70.5591 23.9657 69.9235 23.848 69.3702 23.6126C68.8288 23.3772 68.3933 23.0477 68.0637 22.6122C67.7459 22.1766 67.5812 21.6823 67.5576 21.1291H69.8764C69.8999 21.4587 70.0412 21.7058 70.2883 21.8942C70.5355 22.0825 70.8651 22.1766 71.2888 22.1766C71.7125 22.1766 71.9009 22.1178 72.1127 21.9883C72.3128 21.8471 72.4188 21.6705 72.4188 21.4469C72.4188 21.2233 72.3481 21.1173 72.1951 20.9996C72.0539 20.8819 71.8773 20.7877 71.6537 20.7289C71.4418 20.6583 71.1476 20.5759 70.7709 20.4935C70.1706 20.3522 69.6645 20.211 69.2643 20.0698C68.8641 19.9167 68.5228 19.6696 68.2168 19.3518C67.9225 19.0222 67.793 18.5749 67.793 18.0099C67.793 17.445 67.9225 17.1389 68.1814 16.7741C68.4404 16.3974 68.817 16.1149 69.2996 15.9031C69.7822 15.6912 70.3472 15.5735 70.9828 15.5735C71.6184 15.5735 72.3011 15.6794 72.8425 15.9031C73.3839 16.1149 73.8077 16.4092 74.1137 16.8211C74.4197 17.2096 74.5963 17.6804 74.6316 18.21H72.3128C72.2893 17.9158 72.1481 17.6804 71.9009 17.5156C71.6537 17.3508 71.3594 17.2684 70.9828 17.2684C70.6061 17.2684 70.4649 17.3273 70.2883 17.4332C70.1236 17.5391 70.0412 17.6921 70.0412 17.8922C70.0412 18.0923 70.1 18.21 70.2413 18.3042C70.3825 18.3984 70.5473 18.4808 70.7356 18.5396C70.9357 18.5985 71.23 18.6691 71.6184 18.7515C72.2658 18.8692 72.7954 18.9987 73.1956 19.1517C73.6076 19.3047 73.9607 19.5519 74.2667 19.905C74.5727 20.2581 74.7258 20.7524 74.7258 21.388C74.7258 22.0236 74.5727 22.365 74.2903 22.7534C73.996 23.1418 73.5958 23.4478 73.0779 23.6715C72.5836 23.848 71.9833 23.9657 71.3006 23.9657H71.277Z" fill="#011124"/>
<path d="M103.446 23.9659C102.728 23.9659 102.092 23.8482 101.539 23.6128C100.998 23.3773 100.562 23.0478 100.233 22.6123C99.9149 22.1768 99.7501 21.6824 99.7266 21.1292H102.045C102.069 21.4588 102.21 21.706 102.457 21.8943C102.704 22.0826 103.034 22.1768 103.458 22.1768C103.881 22.1768 104.07 22.1179 104.282 21.9884C104.482 21.8472 104.588 21.6706 104.588 21.447C104.588 21.2234 104.517 21.1174 104.364 20.9997C104.223 20.882 104.046 20.7879 103.823 20.729C103.611 20.6584 103.317 20.576 102.94 20.4936C102.34 20.3524 101.833 20.2111 101.433 20.0699C101.033 19.9169 100.692 19.6697 100.386 19.3519C100.091 19.0223 99.962 18.575 99.962 18.0101C99.962 17.4451 100.091 17.1391 100.35 16.7742C100.609 16.3975 100.986 16.115 101.469 15.9032C101.951 15.6913 102.516 15.5736 103.152 15.5736C103.787 15.5736 104.47 15.6795 105.011 15.9032C105.553 16.115 105.977 16.4093 106.283 16.8213C106.589 17.2097 106.765 17.6805 106.801 18.2102H104.482C104.458 17.9159 104.317 17.6805 104.07 17.5157C103.823 17.3509 103.528 17.2685 103.152 17.2685C102.775 17.2685 102.634 17.3274 102.457 17.4333C102.292 17.5393 102.21 17.6923 102.21 17.8924C102.21 18.0925 102.269 18.2102 102.41 18.3043C102.551 18.3985 102.716 18.4809 102.905 18.5397C103.105 18.5986 103.399 18.6692 103.787 18.7516C104.435 18.8693 104.964 18.9988 105.365 19.1518C105.777 19.3048 106.13 19.552 106.436 19.9051C106.742 20.2582 106.895 20.7526 106.895 21.3882C106.895 22.0238 106.742 22.3651 106.459 22.7535C106.165 23.1419 105.765 23.448 105.247 23.6716C104.753 23.8482 104.152 23.9659 103.47 23.9659H103.446Z" fill="#011124"/>
<path d="M64.5218 13.4187H64.4041V16.4437C64.1687 16.1965 63.8862 15.9846 63.5213 15.8434C63.0976 15.6551 62.6268 15.5609 62.1206 15.5609C61.3556 15.5609 60.6729 15.7375 60.0844 16.0788C59.4959 16.4201 59.025 16.9145 58.6955 17.5383C58.3777 18.1621 58.2129 18.9037 58.2129 19.7629C58.2129 20.6221 58.3659 21.3519 58.6955 21.9875C59.0368 22.6113 59.4959 23.1057 60.0844 23.447C60.6847 23.7884 61.3673 23.9649 62.1442 23.9649C62.921 23.9649 63.1211 23.8708 63.5331 23.706C63.8862 23.553 64.1687 23.3529 64.4041 23.1057V23.8355H66.6875V13.4187H64.5218ZM64.1569 20.9517C63.9921 21.2813 63.7567 21.5402 63.4507 21.7286C63.1447 21.9169 62.7916 22.0111 62.4031 22.0111C62.0147 22.0111 61.6616 21.9287 61.3556 21.7286C61.0495 21.5402 60.8141 21.2813 60.6494 20.9517C60.4846 20.6104 60.4022 20.2102 60.4022 19.7629C60.4022 19.3156 60.4846 18.9155 60.6494 18.5859C60.8141 18.2328 61.0495 17.9738 61.3556 17.7855C61.6616 17.5972 62.0147 17.503 62.4031 17.503C62.7916 17.503 63.1447 17.5972 63.4507 17.7855C63.7567 17.9738 63.9921 18.2445 64.1569 18.5859C64.204 18.6918 64.2511 18.7977 64.2864 18.9155C64.3688 19.1744 64.4041 19.4569 64.4041 19.7629C64.4041 20.0689 64.3688 20.3514 64.2864 20.6104C64.2511 20.7281 64.204 20.8458 64.1569 20.9517Z" fill="#011124"/>
</svg>
